{
  "source": "C:\\Users\\Peter\\Desktop\\stuff\\MIUN\\quantitative_research\\video_compression\\videos\\HEVC_CLASS_B\\ParkScene_1920x1080_24.y4m",
  "output": "C:\\Users\\Peter\\Desktop\\stuff\\MIUN\\quantitative_research\\video_compression\\compressed_videos\\HEVC_CLASS_B\\vp9\\1.5\\ParkScene_1920x1080_24_vp9.webm",
  "codec": "vp9",
  "ok": "Input #0, yuv4mpegpipe, from 'C:\\Users\\Peter\\Desktop\\stuff\\MIUN\\quantitative_research\\video_compression\\videos\\HEVC_CLASS_B\\ParkScene_1920x1080_24.y4m':\n  Duration: 00:00:10.00, start: 0.000000, bitrate: 597198 kb/s\n  Stream #0:0: Video: rawvideo (I420 / 0x30323449), yuv420p(progressive), 1920x1080, 24 fps, 24 tbr, 24 tbn\n[out#0/webm @ 000001e6ef359b80] Codec AVOption b:a (set bitrate (in bits/s)) has not been used for any stream. The most likely reason is either wrong type (e.g. a video option with no video streams) or that it is a private option of some decoder which was not actually used for any stream.\nStream mapping:\n  Stream #0:0 -> #0:0 (rawvideo (native) -> vp9 (libvpx-vp9))\nPress [q] to stop, [?] for help\n[libvpx-vp9 @ 000001e6ef35bfc0] v1.15.2-100-g40561f514\nOutput #0, webm, to 'C:\\Users\\Peter\\Desktop\\stuff\\MIUN\\quantitative_research\\video_compression\\compressed_videos\\HEVC_CLASS_B\\vp9\\1.5\\ParkScene_1920x1080_24_vp9.webm':\n  Metadata:\n    encoder         : Lavf62.3.100\n  Stream #0:0: Video: vp9, yuv420p(tv, progressive), 1920x1080, q=2-31, 1500 kb/s, 24 fps, 1k tbn\n    Metadata:\n      encoder         : Lavc62.11.100 libvpx-vp9\n    Side data:\n      cpb: bitrate max/min/avg: 0/0/0 buffer size: 1500000 vbv_delay: N/A\nframe=    1 fps=0.0 q=25.0 size=       0KiB time=N/A bitrate=N/A speed=N/A elapsed=0:00:00.51    \nframe=    8 fps=7.6 q=49.0 size=       0KiB time=00:00:00.33 bitrate=  11.6kbits/s speed=0.318x elapsed=0:00:01.04    \nframe=   12 fps=7.7 q=48.0 size=       0KiB time=00:00:00.50 bitrate=   7.7kbits/s speed=0.321x elapsed=0:00:01.55    \nframe=   17 fps=8.2 q=47.0 size=       0KiB time=00:00:00.70 bitrate=   5.4kbits/s speed=0.341x elapsed=0:00:02.07    \nframe=   21 fps=8.1 q=37.0 size=       0KiB time=00:00:00.87 bitrate=   4.4kbits/s speed=0.337x elapsed=0:00:02.59    \nframe=   26 fps=8.4 q=46.0 size=       0KiB time=00:00:01.08 bitrate=   3.6kbits/s speed=0.348x elapsed=0:00:03.11    \nframe=   30 fps=8.3 q=47.0 size=       0KiB time=00:00:01.25 bitrate=   3.1kbits/s speed=0.345x elapsed=0:00:03.62    \nframe=   35 fps=8.5 q=46.0 size=       0KiB time=00:00:01.45 bitrate=   2.6kbits/s speed=0.352x elapsed=0:00:04.13    \nframe=   39 fps=8.4 q=48.0 size=       0KiB time=00:00:01.62 bitrate=   2.4kbits/s speed=0.35x elapsed=0:00:04.64    \nframe=   43 fps=8.3 q=46.0 size=       0KiB time=00:00:01.79 bitrate=   2.2kbits/s speed=0.347x elapsed=0:00:05.16    \nframe=   48 fps=8.4 q=49.0 size=       0KiB time=00:00:01.95 bitrate=   2.0kbits/s speed=0.345x elapsed=0:00:05.68    \nframe=   51 fps=8.2 q=34.0 size=       0KiB time=00:00:02.12 bitrate=   1.8kbits/s speed=0.343x elapsed=0:00:06.19    \nframe=   56 fps=8.3 q=50.0 size=       0KiB time=00:00:02.33 bitrate=   1.7kbits/s speed=0.347x elapsed=0:00:06.72    \nframe=   60 fps=8.3 q=51.0 size=       0KiB time=00:00:02.50 bitrate=   1.5kbits/s speed=0.345x elapsed=0:00:07.24    \nframe=   64 fps=8.2 q=49.0 size=       0KiB time=00:00:02.66 bitrate=   1.4kbits/s speed=0.343x elapsed=0:00:07.78    \nframe=   69 fps=8.3 q=50.0 size=       0KiB time=00:00:02.87 bitrate=   1.3kbits/s speed=0.346x elapsed=0:00:08.31    \nframe=   72 fps=8.1 q=50.0 size=       0KiB time=00:00:03.00 bitrate=   1.3kbits/s speed=0.34x elapsed=0:00:08.83    \nframe=   77 fps=8.2 q=49.0 size=       0KiB time=00:00:03.20 bitrate=   1.2kbits/s speed=0.343x elapsed=0:00:09.35    \nframe=  240 fps= 24 q=41.0 size=    1024KiB time=00:00:03.33 bitrate=2516.6kbits/s speed=0.338x elapsed=0:00:09.87    \n[out#0/webm @ 000001e6ef359b80] video:1998KiB audio:0KiB subtitle:0KiB other streams:0KiB global headers:0KiB muxing overhead: 0.110404%\nframe=  240 fps=0.1 q=41.0 Lsize=    2000KiB time=00:00:10.00 bitrate=1638.7kbits/s speed=0.00504x elapsed=0:33:05.08    \n",
  "seconds": 1985.1693241596222,
  "probe_out": {}
}